<svg width="32" height="32" viewBox="0 0 32 32" fill="none" xmlns="http://www.w3.org/2000/svg">
  <defs>
    <linearGradient id="greenGradient" x1="0%" y1="0%" x2="100%" y2="100%">
      <stop offset="0%" style="stop-color:#16A34A;stop-opacity:1" />
      <stop offset="100%" style="stop-color:#059669;stop-opacity:1" />
    </linearGradient>
  </defs>
  
  <!-- Background rounded square -->
  <rect x="2" y="2" width="28" height="28" rx="6" ry="6" 
        fill="url(#greenGradient)" 
        stroke="#047857" 
        stroke-width="1"/>
  
  <!-- Letter S with lightning integration -->
  <g fill="white">
    <!-- Main S shape -->
    <path d="M8 7 L22 7 C23.5 7 25 8.5 25 10 C25 11.5 23.5 13 22 13 L15 13 L15 15 L22 15 C23.5 15 25 16.5 25 18 C25 21.5 23.5 23 22 23 L8 23 L8 20 L21 20 C21.5 20 22 19.5 22 19 C22 18.5 21.5 18 21 18 L12 18 L12 10 C12 9.5 12.5 9 13 9 L21 9 C21.5 9 22 9.5 22 10 C22 10.5 21.5 11 21 11 L8 11 L8 7 Z"/>
    
    <!-- Lightning bolt integrated -->
    <path d="M18 11 L22 7 L20 7 L23 4 L26 9 L24 9 L21 13 L18 11 Z" fill="#EA580C"/>
  </g>
</svg>